PathFileType	4	(X/Y/Z)	C:/Users/beibeiliu/ov580/test_trc\sequence.32_training_dense_right.trc
DataRate	CameraRate	NumFrames	NumMarkers	Units	OrigDataRate	OrigDataStartFrame	OrigNumFrames
120	120	10	19	mm	120	143	200
Frame#	Time	ThumbCMC			ThumbMCP			ThumbIP			ThumbTip			IndexMCP			IndexPIP			IndexTip			MiddleMCP			MiddlePIP			MiddleTip			RingMCP			RingPIP			RingTip			PinkyMCP			PinkyPIP			PinkyTip			BackHand1			BackHand2			BackHand3	
		X0	Y0	Z0	X1	Y1	Z1	X2	Y2	Z2	X3	Y3	Z3	X4	Y4	Z4	X5	Y5	Z5	X6	Y6	Z6	X7	Y7	Z7	X8	Y8	Z8	X9	Y9	Z9	X10	Y10	Z10	X11	Y11	Z11	X12	Y12	Z12	X13	Y13	Z13	X14	Y14	Z14	X15	Y15	Z15	X16	Y16	Z16	X17	Y17	Z17	X18	Y18	Z18	
142	1.18333	32.7401	78.7042	11.5932	12.1849	72.3769	-6.67757	0.383894	72.9543	-27.4557	-7.12121	69.281	-42.4744	46.9215	104.035	-45.9228	42.4221	110.687	-64.2685	42.551	121.242	-82.0903	55.9386	84.8714	-59.7379	44.3413	76.8727	-80.5883	24.1715	56.8866	-97.0406	62.6148	63.3278	-60.1254	46.4347	53.0095	-69.8643	23.9242	32.9286	-66.2534	87.4821	53.3879	-47.8098	86.2025	53.6086	-64.0185	94.7759	50.676	-82.265	82.566	71.6213	-7.65609	89.8452	67.3919	12.1486	66.0185	89.5797	6.79484	
143	1.19167	38.8212	79.1371	11.2672	17.1748	73.2835	-5.29483	2.43204	74.8631	-26.7474	-6.60088	74.2586	-44.992	47.8593	102.431	-44.8318	42.3017	108.132	-69.6819	43.0265	112.115	-89.2285	56.9206	81.3575	-57.5233	40.326	67.5347	-77.2539	17.7228	43.7699	-77.8608	69.1797	66.3784	-55.5176	50.1426	50.3781	-75.1254	30.9526	39.326	-75.8561	91.0006	53.8675	-43.3474	93.0259	53.1407	-61.1559	100.05	59.6889	-79.1688	85.8975	75.4014	-11.8312	89.122	66.7586	17.9152	68.7116	87.042	5.6355	
144	1.2	41.0782	78.5056	16.9501	17.9725	74.8867	-4.97264	7.06406	76.0377	-24.7073	-5.98614	76.1578	-39.9993	47.7537	100.323	-50.193	42.7659	98.7772	-73.1895	34.1987	102.24	-90.1514	54.5286	79.0456	-55.0344	35.0917	58.9887	-70.5672	17.316	37.9158	-61.2238	72.249	66.446	-58.8646	61.2267	56.7715	-75.7404	40.6653	43.5741	-88.98	95.029	52.8282	-43.6331	98.8472	55.6475	-63.2584	104.828	59.0763	-73.4727	86.586	71.9765	-12.6812	91.3925	67.6341	18.3113	72.7235	89.4345	4.87625	
145	1.20833	42.6008	78.763	15.5787	21.7012	76.2271	-7.21861	6.59226	78.424	-22.6663	-4.94666	80.4577	-38.7864	48.1109	93.4997	-51.6446	38.0032	91.1133	-70.2461	24.7756	86.4182	-89.8054	57.405	76.0271	-55.8987	35.6823	57.6995	-69.5663	19.0233	35.1614	-55.0083	75.7351	66.8262	-57.3789	65.9469	59.8793	-79.6094	53.1106	49.5771	-95.7976	94.4008	52.3441	-41.525	99.9215	52.5225	-57.7226	113.213	52.8331	-69.7334	90.9643	67.1814	-9.28701	92.9611	65.6797	16.3855	76.1072	85.901	5.64369	
146	1.21667	43.6962	80.8411	13.1613	24.8995	76.8995	-3.8931	9.66344	82.5961	-23.5369	-2.25743	83.3749	-35.8931	43.4431	93.0831	-51.3504	31.2902	85.8471	-65.522	15.9459	68.8224	-82.8479	60.6736	77.1287	-56.417	40.7241	61.7561	-75.1315	18.9697	38.8649	-64.4913	79.3256	63.8632	-53.9853	72.526	60.1769	-79.1344	64.5166	55.4774	-97.3351	97.3426	48.422	-42.4273	103.23	49.0605	-58.0053	113.868	52.0285	-71.6377	89.6363	70.0672	-10.5482	92.842	62.563	15.1087	75.2464	83.7883	8.08973	
147	1.225	43.5097	83.2209	14.3579	24.814	79.9386	-3.65032	11.8617	85.1442	-21.8529	0.177003	88.4243	-36.9979	45.7302	88.0087	-49.0162	27.6776	76.122	-63.893	9.02009	56.1094	-67.8418	67.7612	78.4799	-60.0627	49.9762	72.5397	-84.2466	26.9129	56.5229	-92.8923	82.1624	65.2179	-53.3903	81.9648	62.7689	-76.1808	77.8952	60.8832	-98.1224	93.1199	47.9351	-38.9259	102.101	43.5987	-54.3243	115.507	44.3853	-65.534	89.6786	66.9419	-7.9458	91.5603	63.6989	14.218	77.1286	82.4839	7.7724	
148	1.23333	45.9492	83.1982	14.581	23.4759	83.6408	-4.98721	10.2707	89.5583	-23.9088	-1.59716	91.9407	-35.4331	43.0703	87.9947	-50.2615	24.6227	69.2441	-60.1581	6.31113	50.7727	-54.5165	69.2538	83.256	-59.3412	63.2174	81.213	-81.9297	48.5463	72.9446	-107.352	85.2557	68.6682	-54.0492	89.2714	66.8192	-73.8468	87.5871	69.5374	-95.6704	96.7126	46.2866	-42.1578	104.756	40.8059	-56.3518	115.678	42.3646	-71.1275	89.9546	65.342	-10.8194	92.885	63.8385	16.0753	79.7094	84.1112	7.07768	
149	1.24167	42.6319	84.4265	16.5311	25.0637	81.9157	-1.1836	7.97164	89.5838	-21.7231	-0.861898	90.1342	-37.5903	45.1554	86.6128	-49.0338	27.2504	70.1833	-58.0943	12.1897	49.1154	-51.7624	69.3021	85.3902	-56.116	63.8263	86.0337	-80.2071	60.3028	84.3297	-107.358	85.0085	71.138	-51.7935	89.5066	71.3712	-71.0523	95.9488	75.3893	-95.091	96.0795	48.3448	-43.0824	104.334	45.0669	-56.5201	116.104	45.6354	-70.3842	89.4735	68.5503	-8.63982	94.3095	64.1261	15.5889	74.8586	88.0286	6.18389	
150	1.25	42.3166	82.9958	17.7679	22.4131	82.3263	-3.90373	8.78869	86.3712	-19.594	-5.06279	91.5808	-35.076	40.5639	88.5511	-47.1179	22.122	71.9323	-57.7624	7.54014	45.6568	-45.6278	67.7896	85.2751	-58.2569	63.3715	86.5661	-81.9829	61.7159	88.2937	-106.484	84.6593	71.0531	-49.6906	90.8679	75.7057	-73.135	93.8466	80.1191	-88.7215	93.5877	52.1359	-40.4446	101.903	49.0379	-52.7686	116.545	49.5009	-66.9106	87.9416	71.56	-10.2223	91.6228	67.8958	14.5212	73.6014	87.671	5.56032	
151	1.25833	39.0402	83.1493	16.2048	18.3329	80.1721	-0.583661	7.88518	84.4644	-21.6951	-6.18783	86.8128	-34.9748	36.8579	88.593	-45.6187	23.3882	68.4402	-57.9296	10.1835	41.8237	-45.9257	65.4223	85.4231	-55.0564	60.0692	88.3136	-78.5122	56.463	91.9849	-101.535	85.9018	72.4876	-53.638	89.2852	77.0818	-72.6067	91.7	80.2339	-88.2893	95.9905	51.7324	-38.2571	103.248	52.866	-54.5942	116.279	54.0539	-67.8404	85.163	72.6402	-8.82323	92.9839	65.8526	17.885	70.0847	87.9023	6.94702	
